<?xml version="1.0" encoding="UTF-8"?>
<svg version="1.1" xmlns="http://www.w3.org/2000/svg" width="128" height="128">
<path d="M0 0 C5.3580673 -0.47627265 5.3580673 -0.47627265 7.9375 1.4375 C9.66937661 5.61437888 9.48449557 8.84100835 8 13 C4.13665219 19.12857451 -0.27534481 24.8701553 -6 29.375 C-9.66738659 32.58396327 -10.15862516 34.32569534 -11 39 C-10.175 39.061875 -9.35 39.12375 -8.5 39.1875 C-1.91522698 40.71610802 2.51886971 43.86824376 6.4375 49.375 C8.87325807 53.31577931 9.80403301 56.39477569 10 61 C6.64521024 63.2365265 3.89344475 62.99535513 -0.0390625 62.87109375 C-2.88233782 63.05800229 -4.69084003 64.41657602 -7 66 C-7.99 66 -8.98 66 -10 66 C-9.94779297 67.08667969 -9.94779297 67.08667969 -9.89453125 68.1953125 C-9.86746094 69.16210938 -9.84039062 70.12890625 -9.8125 71.125 C-9.76029297 72.55199219 -9.76029297 72.55199219 -9.70703125 74.0078125 C-10.0592407 77.60504503 -11.31453242 79.81063746 -13 83 C-14.0399832 85.76423005 -14.94505194 88.57213219 -15.875 91.375 C-19.91010238 103.07114903 -19.91010238 103.07114903 -24 108 C-26.75 108.5625 -26.75 108.5625 -29 108 C-30.93154485 106.06845515 -30.21854009 102.6889823 -30.25 100.125 C-30.27578125 98.86945313 -30.3015625 97.61390625 -30.328125 96.3203125 C-29.97088535 92.70538745 -29.63312962 92.22087195 -27 90 C-26.28552357 87.89667109 -26.28552357 87.89667109 -26 86 C-26.93199219 86.27714844 -27.86398438 86.55429688 -28.82421875 86.83984375 C-37.05439313 89.20869225 -45.34991289 91.40358105 -54 91 C-54.66 90.34 -55.32 89.68 -56 89 C-55.9375 86.625 -55.9375 86.625 -55 84 C-51.02958285 80.24419999 -47.36293679 77.87988155 -41.875 77.6875 C-36.97424018 77.26488058 -33.3325238 75.41530658 -29.06640625 73.05859375 C-27 72 -27 72 -25 72 C-25 70.68 -25 69.36 -25 68 C-25.99 68.020625 -26.98 68.04125 -28 68.0625 C-30.82035977 68.07969732 -33.46548071 67.81330396 -36.25 67.375 C-40.07531781 66.59178896 -40.07531781 66.59178896 -43 69 C-45.26171875 69.1953125 -45.26171875 69.1953125 -47.6875 69.125 C-48.49574219 69.10695313 -49.30398437 69.08890625 -50.13671875 69.0703125 C-50.75160156 69.04710938 -51.36648437 69.02390625 -52 69 C-52.88620853 66.02639669 -53.1484027 64.42004417 -52.1015625 61.45703125 C-47.9190627 53.96615198 -42.95160547 46.42938046 -35.7890625 41.46875 C-33.68142528 39.73846268 -33.36615068 38.65459243 -33 36 C-33.7528125 35.96261719 -34.505625 35.92523438 -35.28125 35.88671875 C-41.82069374 35.48197163 -48.23894003 34.76009311 -54.6875 33.625 C-55.38230469 33.51115967 -56.07710937 33.39731934 -56.79296875 33.2800293 C-58.76171875 32.9140625 -58.76171875 32.9140625 -62 32 C-64.31282587 28.53076119 -64.42478586 27.07794425 -64 23 C-62.83203125 21.234375 -62.83203125 21.234375 -61 20 C-58.3984375 20.328125 -58.3984375 20.328125 -55.375 21.25 C-43.39181796 24.59781944 -27.75450121 26.9302366 -16.43359375 20.5546875 C-8.08445851 15.00518777 -3.02519305 9.579778 0 0 Z M3 5 C2.30289269 6.28650706 1.61757124 7.57940665 0.9375 8.875 C0.55464844 9.59429688 0.17179687 10.31359375 -0.22265625 11.0546875 C-0.47917969 11.69664063 -0.73570313 12.33859375 -1 13 C-0.67 13.66 -0.34 14.32 0 15 C3.17626927 11.59058546 3.17626927 11.59058546 4.25 7.1875 C4.12625 6.1046875 4.12625 6.1046875 4 5 C3.67 5 3.34 5 3 5 Z M-2 15 C-2.46148437 15.44730469 -2.92296875 15.89460938 -3.3984375 16.35546875 C-12.81064813 25.07943473 -21.48208094 28.19737044 -34.0625 28.1875 C-35.00536865 28.18741943 -35.9482373 28.18733887 -36.91967773 28.18725586 C-43.45716579 28.13368376 -49.65086087 27.65053522 -56 26 C-56.75152344 25.81308594 -57.50304688 25.62617187 -58.27734375 25.43359375 C-59.13005859 25.21896484 -59.13005859 25.21896484 -60 25 C-59.67 25.99 -59.34 26.98 -59 28 C-49.76 29.65 -40.52 31.3 -31 33 C-30.34 34.98 -29.68 36.96 -29 39 C-24.38 38.67 -19.76 38.34 -15 38 C-14.855625 36.906875 -14.71125 35.81375 -14.5625 34.6875 C-14 31 -14 31 -13 28 C-11.66666667 27.33333333 -10.33333333 26.66666667 -9 26 C-7.52759605 24.51147484 -6.11257757 22.96467384 -4.75 21.375 C-3.69039062 20.14910156 -3.69039062 20.14910156 -2.609375 18.8984375 C-2.07828125 18.27195312 -1.5471875 17.64546875 -1 17 C-1.495 16.01 -1.495 16.01 -2 15 Z M-26 44 C-27.18669393 45.53169768 -28.32402322 47.10177943 -29.4375 48.6875 C-30.05496094 49.55761719 -30.67242187 50.42773438 -31.30859375 51.32421875 C-33.58464622 54.92490222 -35 57.71114474 -35 62 C-31.19956554 63.73734147 -29.40285423 64 -25 64 C-25 57.4 -25 50.8 -25 44 C-25.33 44 -25.66 44 -26 44 Z M-21 44 C-21 49.61 -21 55.22 -21 61 C-19.02 60.01 -17.04 59.02 -15 58 C-15.42683239 56.41375765 -15.86696158 54.8310902 -16.3125 53.25 C-16.55613281 52.36828125 -16.79976562 51.4865625 -17.05078125 50.578125 C-18.01319148 47.58429552 -18.01319148 47.58429552 -21 44 Z M-7 45 C-6.07172661 46.79646436 -5.13204162 48.58703557 -4.1875 50.375 C-3.40439453 51.87160156 -3.40439453 51.87160156 -2.60546875 53.3984375 C-1.10835316 56.22876117 -1.10835316 56.22876117 2 58 C2.99 57.67 3.98 57.34 5 57 C2.30097208 51.70575294 -0.15610289 48.47496967 -5 45 C-5.66 45 -6.32 45 -7 45 Z M-14 46 C-13.52229477 47.93786085 -13.04278429 49.87527674 -12.5625 51.8125 C-12.29566406 52.89144531 -12.02882812 53.97039062 -11.75390625 55.08203125 C-11.23922588 57.0740843 -10.65062825 59.04811524 -10 61 C-8.68 60.67 -7.36 60.34 -6 60 C-5.23605898 58.21099972 -5.23605898 58.21099972 -5 56 C-6.07208884 53.84933733 -6.07208884 53.84933733 -7.75 51.875 C-8.28109375 51.19179688 -8.8121875 50.50859375 -9.359375 49.8046875 C-11.06600253 47.78083369 -11.06600253 47.78083369 -14 46 Z M-35 47 C-41.03532012 52.361401 -44.83374806 57.57148583 -48 65 C-43.63444516 64.10473823 -41.90065889 62.46664112 -39 59 C-37.09561485 55.77016278 -35.30784704 52.51873133 -34 49 C-34.33 48.34 -34.66 47.68 -35 47 Z M-18.625 64 C-20.37472311 66.11166411 -20.37472311 66.11166411 -19.8125 69.75 C-20.00390625 71.87109375 -20.00390625 71.87109375 -21 74 C-28.33857456 79.33234554 -36.70968409 81.80548001 -45.55078125 83.39453125 C-46.35902344 83.59433594 -47.16726562 83.79414062 -48 84 C-48.33 84.66 -48.66 85.32 -49 86 C-40.94648225 85.64930775 -33.94686015 83.60099151 -26.375 80.9375 C-25.27542969 80.56044922 -24.17585938 80.18339844 -23.04296875 79.79492188 C-20.3586502 78.87291681 -17.67883876 77.93780719 -15 77 C-14.67 72.38 -14.34 67.76 -14 63 C-16.89217787 62.73795129 -16.89217787 62.73795129 -18.625 64 Z M-20 83 C-20.19335938 83.61488281 -20.38671875 84.22976562 -20.5859375 84.86328125 C-20.84632812 85.67152344 -21.10671875 86.47976562 -21.375 87.3125 C-21.63023438 88.11300781 -21.88546875 88.91351563 -22.1484375 89.73828125 C-23 92 -23 92 -25 95 C-24.69159401 97.15274948 -24.69159401 97.15274948 -24 99 C-23.18395001 97.0848421 -22.37229368 95.16781166 -21.5625 93.25 C-21.11003906 92.18265625 -20.65757813 91.1153125 -20.19140625 90.015625 C-19.26020447 87.6586159 -18.5215928 85.47007165 -18 83 C-18.66 83 -19.32 83 -20 83 Z M-26 99 C-25 101 -25 101 -25 101 Z " fill="#8C25A7" transform="translate(90,12)"/>
<path d="M0 0 C2.89683868 2.2015974 4.39297231 3.78594462 6 7 C8.02325068 7.53858541 8.02325068 7.53858541 10.375 7.875 C13.2355884 8.47531426 14.74428805 8.79852998 17.0625 10.625 C18.45457989 14.1516024 18.87765955 17.32978733 18 21 C15.42450682 24.15497915 13.98454191 25.71866647 9.9609375 26.2890625 C7.72015062 26.17996052 6.06532774 25.88008612 4 25 C1.6875 22.25 1.6875 22.25 0 19 C-0.5775 18.05125 -1.155 17.1025 -1.75 16.125 C-2.1625 15.42375 -2.575 14.7225 -3 14 C-6.35990597 14.39528305 -7.99729624 14.99797218 -10.75 17.0625 C-15.01721379 19.60641592 -18.14683925 19.81572651 -23 19 C-28.50335802 17.12545 -32.72174817 13.85042665 -37 10 C-36.67 9.01 -36.34 8.02 -36 7 C-35.11699219 6.99742188 -34.23398437 6.99484375 -33.32421875 6.9921875 C-26.82495945 6.78275917 -21.91887817 6.39070394 -16.3125 2.9375 C-10.92100117 -0.35951701 -6.24290868 -1.39751387 0 0 Z M-13.4375 6.875 C-17.23117821 9.04867508 -20.750843 10.85157919 -25 12 C-23.4212319 13.7089129 -23.4212319 13.7089129 -21 15 C-16.89664049 14.92539346 -14.725301 14.61371623 -11.5625 11.9375 C-7.85952129 9.13768683 -5.57978407 9.63066258 -1 10 C-0.01 10.33 0.98 10.66 2 11 C0.75023244 7.34683329 0.32901247 6.21934164 -3 4 C-7.31158593 3.44042645 -9.76197005 4.69574962 -13.4375 6.875 Z M8 12 C7.01 12.66 6.02 13.32 5 14 C4.58333333 16.5 4.58333333 16.5 5 19 C6.82915641 21.23845015 6.82915641 21.23845015 9.5 21.3125 C10.325 21.209375 11.15 21.10625 12 21 C14.20896722 18.31450092 14.20896722 18.31450092 13.9375 15.9375 C13.11123761 13.76801847 13.11123761 13.76801847 10.625 12.625 C9.75875 12.41875 8.8925 12.2125 8 12 Z " fill="#8C25A7" transform="translate(56,8)"/>
<path d="M0 0 C1.875 0.125 1.875 0.125 4 1 C4.309375 1.969375 4.61875 2.93875 4.9375 3.9375 C5.68330077 7.21591666 5.68330077 7.21591666 8.625 8.375 C9.40875 8.58125 10.1925 8.7875 11 9 C11 10.32 11 11.64 11 13 C9.33720673 14.0064275 7.67016516 15.00585407 6 16 C4.65310085 18.57099402 4.65310085 18.57099402 4 21 C2.68 21 1.36 21 0 21 C-0.5878125 19.576875 -0.5878125 19.576875 -1.1875 18.125 C-3.19793856 14.65872662 -4.22699642 14.0197307 -8 13 C-7.8125 10.6875 -7.8125 10.6875 -7 8 C-5.34467377 6.98133771 -3.67739862 5.98189187 -2 5 C-0.65310085 2.42900598 -0.65310085 2.42900598 0 0 Z M1 9 C1 10.32 1 11.64 1 13 C1.99 12.01 2.98 11.02 4 10 C3.01 9.67 2.02 9.34 1 9 Z " fill="#8E24A8" transform="translate(97,34)"/>
<path d="M0 0 C0.99 0.33 1.98 0.66 3 1 C3.28875 1.969375 3.5775 2.93875 3.875 3.9375 C4.68861556 7.21128486 4.68861556 7.21128486 7.625 8.375 C8.40875 8.58125 9.1925 8.7875 10 9 C10 10.32 10 11.64 10 13 C8.33720673 14.0064275 6.67016516 15.00585407 5 16 C3.65310085 18.57099402 3.65310085 18.57099402 3 21 C1.68 21 0.36 21 -1 21 C-1.20625 20.05125 -1.4125 19.1025 -1.625 18.125 C-2.70833333 14.70833333 -2.70833333 14.70833333 -6.125 13.625 C-7.07375 13.41875 -8.0225 13.2125 -9 13 C-9 11.68 -9 10.36 -9 9 C-7.02053408 7.63636792 -5.0180755 6.30581356 -3 5 C-1.13689678 2.39975951 -1.13689678 2.39975951 0 0 Z M0 9 C0 10.32 0 11.64 0 13 C0.99 12.01 1.98 11.02 3 10 C2.01 9.67 1.02 9.34 0 9 Z " fill="#8B26A6" transform="translate(89,83)"/>
<path d="M0 0 C1.75 0.125 1.75 0.125 4 1 C5.35278115 2.98689731 6.68568305 4.98745218 8 7 C10.10039331 8.38868516 10.10039331 8.38868516 12 9 C11.8125 10.8125 11.8125 10.8125 11 13 C9.33720673 14.0064275 7.67016516 15.00585407 6 16 C4.99431758 17.66324401 3.99335201 19.32936253 3 21 C2.01 21 1.02 21 0 21 C-0.391875 20.071875 -0.78375 19.14375 -1.1875 18.1875 C-3.12822616 14.77449882 -4.53018941 13.68801596 -8 12 C-7.8125 10.1875 -7.8125 10.1875 -7 8 C-6.195625 7.525625 -5.39125 7.05125 -4.5625 6.5625 C-1.5196118 4.70708037 -0.99512398 3.34723519 0 0 Z M1 8 C1 8.66 1 9.32 1 10 C0.01 10.495 0.01 10.495 -1 11 C0.485 11.99 0.485 11.99 2 13 C2.66 12.01 3.32 11.02 4 10 C3.01 9.34 2.02 8.68 1 8 Z " fill="#8E25A8" transform="translate(28,50)"/>
</svg>
